#!OML:ASF H:\GeneralSubjects\Female5\Project 1\Capture day 1\Session 1\Female5.ASF
:FULLY-SPECIFIED
:DEGREES
86
root -10.7912 15.864 2.85381 168.672 -80.3245 -160.399
lowerback 6.19525 2.97659 2.35003
upperback -10.3734 4.29745 2.21957
thorax -14.9451 1.77353 0.390119
lowerneck -18.9924 -0.177685 1.16775
upperneck 34.6238 -1.08203 -1.55417
head 15.2999 -0.880238 -1.15672
rclavicle 2.22639e-014 -1.19271e-015
rhumerus -46.0996 20.3974 -88.0405
rradius 32.0177
rwrist -9.52335
rhand -25.7548 -25.2747
rfingers 7.12502
rthumb 0.78253 -55.253
lclavicle 2.22639e-014 -1.19271e-015
lhumerus -43.0078 0.466018 82.5485
lradius 30.6968
lwrist -10.1239
lhand -27.013 33.5121
lfingers 7.12502
lthumb -0.432688 63.4914
rfemur 8.32305 15.4482 39.115
rtibia -10.466
rfoot -22.0574 -27.6748
rtoes -5.12303
lfemur -29.2425 -20.0046 -11.5991
ltibia 12.8459
lfoot -23.198 4.56813
ltoes -62.1784
87
root -10.7913 15.8624 2.85738 168.391 -80.2944 -160.076
lowerback 6.12273 2.98066 2.36488
upperback -10.3732 4.30326 2.24723
thorax -14.8996 1.77701 0.415183
lowerneck -19.0522 -0.143619 1.18508
upperneck 34.6297 -1.03631 -1.55011
head 15.3176 -0.856893 -1.15019
rclavicle 4.67144e-015 4.77083e-015
rhumerus -46.0966 20.3543 -87.9847
rradius 31.9837
rwrist -9.27905
rhand -25.9194 -24.8201
rfingers 7.12502
rthumb 0.623548 -54.7989
lclavicle 4.67144e-015 4.77083e-015
lhumerus -43.0101 0.640445 82.4534
lradius 30.5709
lwrist -10.2408
lhand -28.0048 32.8836
lfingers 7.12502
lthumb -1.39051 62.8588
rfemur 8.33921 15.4684 39.1445
rtibia -10.6103
rfoot -21.9746 -27.7077
rtoes -5.09447
lfemur -29.3387 -19.8191 -11.5713
ltibia 12.973
lfoot -23.0279 4.3843
ltoes -62.2608
88
root -10.7908 15.8606 2.85959 167.864 -80.2681 -159.546
lowerback 6.0812 2.97835 2.39252
upperback -10.363 4.30507 2.2838
thorax -14.8618 1.77802 0.442301
lowerneck -19.104 -0.132433 1.13909
upperneck 34.6649 -1.03714 -1.46109
head 15.3476 -0.850202 -1.10598
rclavicle -2.01766e-014 1.78906e-014
rhumerus -46.1172 20.3553 -88.0411
rradius 31.9153
rwrist -9.50676
rhand -26.2416 -24.4699
rfingers 7.12502
rthumb 0.312354 -54.4494
lclavicle -2.01766e-014 1.78906e-014
lhumerus -43.0917 0.668909 82.3969
lradius 30.6013
lwrist -10.2717
lhand -17.4381 39.8774
lfingers 7.12502
lthumb 8.81259 69.6734
rfemur 8.38032 15.4751 39.258
rtibia -10.6999
rfoot -22.0651 -27.6805
rtoes -5.26999
lfemur -29.4316 -19.6797 -11.4833
ltibia 13.1137
lfoot -22.8793 4.3392
ltoes -62.1923
89
root -10.789 15.8583 2.86141 167.369 -80.2629 -159.046
lowerback 6.03615 2.97812 2.41895
upperback -10.3477 4.30784 2.30337
thorax -14.814 1.77885 0.451132
lowerneck -19.1363 -0.131331 1.08648
upperneck 34.6705 -1.04633 -1.37767
head 15.3587 -0.84829 -1.0635
rclavicle 1.54058e-014 -1.82882e-014
rhumerus -46.0674 20.2717 -88.0276
rradius 31.8177
rwrist -9.71472
rhand -26.5047 -24.3128
rfingers 7.12502
rthumb 0.0583329 -54.2925
lclavicle 1.54058e-014 -1.82882e-014
lhumerus -43.0757 0.697865 82.3282
lradius 30.5547
lwrist -10.4087
lhand -14.9385 41.4683
lfingers 7.12502
lthumb 11.2241 71.148
rfemur 8.37919 15.4596 39.3286
rtibia -10.7395
rfoot -22.0444 -27.7141
rtoes -5.30745
lfemur -29.5391 -19.5507 -11.3994
ltibia 13.2381
lfoot -22.7757 4.28422
ltoes -62.1762
90
root -10.7869 15.8562 2.86604 167.225 -80.2784 -158.88
lowerback 6.00197 2.9664 2.40151
upperback -10.3534 4.28903 2.32011
thorax -14.8019 1.77307 0.484507
lowerneck -19.11 -0.129614 1.11945
upperneck 34.597 -1.00518 -1.49607
head 15.3169 -0.842648 -1.10959
rclavicle 2.37548e-014 1.90833e-014
rhumerus -46.0361 20.2568 -87.9683
rradius 31.774
rwrist -9.57998
rhand -26.6172 -24.3487
rfingers 7.12502
rthumb -0.050352 -54.3285
lclavicle 2.37548e-014 1.90833e-014
lhumerus -43.0231 0.657157 82.3421
lradius 30.4314
lwrist -10.3228
lhand -14.8274 41.2548
lfingers 7.12502
lthumb 11.3312 70.9286
rfemur 8.34318 15.4386 39.3039
rtibia -10.7476
rfoot -22.0986 -27.7106
rtoes -5.36017
lfemur -29.6242 -19.5112 -11.3891
ltibia 13.2702
lfoot -22.73 4.21712
ltoes -62.0186
91
root -10.7847 15.8538 2.87094 167.374 -80.2934 -159.01
lowerback 5.93862 2.96251 2.3532
upperback -10.3469 4.27408 2.32222
thorax -14.7571 1.77248 0.519346
lowerneck -19.1135 -0.145793 1.18502
upperneck 34.5228 -0.967513 -1.70768
head 15.2808 -0.847397 -1.20148
rclavicle -1.12313e-014 5.96354e-015
rhumerus -46.035 20.316 -87.982
rradius 31.7905
rwrist -9.62798
rhand -26.6713 -24.5061
rfingers 7.12502
rthumb -0.102646 -54.4858
lclavicle -1.12313e-014 5.96354e-015
lhumerus -42.9402 0.567691 82.3922
lradius 30.328
lwrist -10.1131
lhand -18.2406 39.5792
lfingers 7.12502
lthumb 8.03815 69.4063
rfemur 8.31643 15.4308 39.2424
rtibia -10.7593
rfoot -22.2116 -27.6739
rtoes -5.31608
lfemur -29.7109 -19.4697 -11.4502
ltibia 13.3822
lfoot -22.6489 4.16203
ltoes -61.9882
92
root -10.7817 15.8499 2.87297 167.108 -80.251 -158.734
lowerback 5.87121 2.99697 2.41698
upperback -10.3235 4.3235 2.29969
thorax -14.6781 1.78899 0.453326
lowerneck -19.1323 -0.182411 1.20453
upperneck 34.4429 -1.00698 -1.74731
head 15.2458 -0.864813 -1.22661
rclavicle -1.20265e-014 -3.77691e-014
rhumerus -45.9726 20.1979 -87.9665
rradius 31.7766
rwrist -9.7298
rhand -26.526 -24.7576
rfingers 7.12502
rthumb 0.0377135 -54.7373
lclavicle -1.20265e-014 -3.77691e-014
lhumerus -42.8623 0.435735 82.413
lradius 30.2413
lwrist -9.95425
lhand -25.6128 33.7546
lfingers 7.12502
lthumb 0.919673 63.7323
rfemur 8.3343 15.47 39.3415
rtibia -10.811
rfoot -22.2013 -27.6545
rtoes -4.72465
lfemur -29.8024 -19.3059 -11.4114
ltibia 13.5322
lfoot -22.5345 4.07648
ltoes -61.9055
93
root -10.7808 15.8482 2.87494 166.053 -80.257 -157.741
lowerback 5.90321 2.99928 2.61047
upperback -10.2996 4.35365 2.29791
thorax -14.6544 1.78254 0.337426
lowerneck -19.1282 -0.210391 1.12452
upperneck 34.373 -1.07208 -1.58892
head 15.2121 -0.87779 -1.15571
rclavicle 2.13694e-014 2.98177e-014
rhumerus -45.9389 20.0671 -87.9429
rradius 31.7637
rwrist -9.80267
rhand -26.3363 -25.0235
rfingers 7.12502
rthumb 0.220893 -55.0031
lclavicle 2.13694e-014 2.98177e-014
lhumerus -42.8975 0.418419 82.3883
lradius 30.2327
lwrist -9.93821
lhand -26.3292 34.8149
lfingers 7.12502
lthumb 0.227759 64.7945
rfemur 8.49385 15.4078 39.5788
rtibia -10.9582
rfoot -22.2197 -27.5748
rtoes -3.70524
lfemur -29.8038 -19.227 -11.2821
ltibia 13.6356
lfoot -22.4522 3.91711
ltoes -61.8016
94
root -10.7828 15.852 2.87837 165.239 -80.3903 -157.046
lowerback 5.96789 2.95322 2.72809
upperback -10.2824 4.30874 2.27898
thorax -14.6645 1.74755 0.256361
lowerneck -19.0306 -0.253554 1.06049
upperneck 34.2384 -1.14952 -1.46914
head 15.1258 -0.899929 -1.1039
rclavicle -2.33572e-014 -2.06736e-014
rhumerus -46.0243 19.9823 -87.9873
rradius 31.7949
rwrist -9.85853
rhand -26.4177 -24.7692
rfingers 7.12502
rthumb 0.142291 -54.7489
lclavicle -2.33572e-014 -2.06736e-014
lhumerus -43.0026 0.64008 82.2379
lradius 30.3053
lwrist -10.1781
lhand -18.2131 39.2449
lfingers 7.12502
lthumb 8.06464 69.071
rfemur 8.69233 15.2036 39.6511
rtibia -11.095
rfoot -22.2992 -27.4441
rtoes -2.5779
lfemur -29.7113 -19.3172 -11.304
ltibia 13.6977
lfoot -22.3417 3.81488
ltoes -61.761
